<mxfile host="app.diagrams.net" modified="2021-05-13T13:26:52.161Z" agent="5.0 (X11)" etag="WJfosuYvJd0Ny6gZwQuw" version="14.6.12" type="github">
  <diagram id="2uDkfwOcNw2WNMrMIj2k" name="Page-1">
    <mxGraphModel dx="1422" dy="797" grid="0" gridSize="10" guides="1" tooltips="1" connect="1" arrows="1" fold="1" page="1" pageScale="1" pageWidth="850" pageHeight="1100" background="#FFFFFF" math="0" shadow="0">
      <root>
        <mxCell id="0" />
        <mxCell id="1" parent="0" />
        <mxCell id="8opHpt3l5C5yYpxKlu1c-1" value="GW Master" style="rounded=0;whiteSpace=wrap;html=1;fillColor=#e3c800;strokeColor=#B09500;fontColor=#000000;" vertex="1" parent="1">
          <mxGeometry x="123" y="278" width="150" height="106" as="geometry" />
        </mxCell>
        <mxCell id="8opHpt3l5C5yYpxKlu1c-2" value="GW Backup" style="rounded=0;whiteSpace=wrap;html=1;fillColor=#e3c800;strokeColor=#B09500;fontColor=#000000;" vertex="1" parent="1">
          <mxGeometry x="582" y="278" width="150" height="106" as="geometry" />
        </mxCell>
        <mxCell id="8opHpt3l5C5yYpxKlu1c-3" value="Switch WAN" style="rounded=1;whiteSpace=wrap;html=1;fillColor=#1ba1e2;strokeColor=#006EAF;fontColor=#ffffff;" vertex="1" parent="1">
          <mxGeometry x="324" y="146" width="177" height="60" as="geometry" />
        </mxCell>
        <mxCell id="8opHpt3l5C5yYpxKlu1c-4" value="Switch LAN" style="rounded=1;whiteSpace=wrap;html=1;fillColor=#1ba1e2;strokeColor=#006EAF;fontColor=#ffffff;" vertex="1" parent="1">
          <mxGeometry x="326.5" y="490" width="177" height="60" as="geometry" />
        </mxCell>
        <mxCell id="8opHpt3l5C5yYpxKlu1c-5" value="Internet" style="ellipse;shape=cloud;whiteSpace=wrap;html=1;fillColor=#b1ddf0;strokeColor=#10739e;" vertex="1" parent="1">
          <mxGeometry x="355" y="20" width="120" height="80" as="geometry" />
        </mxCell>
        <mxCell id="8opHpt3l5C5yYpxKlu1c-8" value="" style="endArrow=classic;html=1;strokeColor=#FF3333;exitX=0;exitY=0.5;exitDx=0;exitDy=0;entryX=0.5;entryY=0;entryDx=0;entryDy=0;" edge="1" parent="1" source="8opHpt3l5C5yYpxKlu1c-3" target="8opHpt3l5C5yYpxKlu1c-1">
          <mxGeometry width="50" height="50" relative="1" as="geometry">
            <mxPoint x="399" y="419" as="sourcePoint" />
            <mxPoint x="449" y="369" as="targetPoint" />
          </mxGeometry>
        </mxCell>
        <mxCell id="8opHpt3l5C5yYpxKlu1c-9" value="" style="endArrow=classic;html=1;strokeColor=#FF3333;exitX=0.5;exitY=1;exitDx=0;exitDy=0;entryX=0.5;entryY=0;entryDx=0;entryDy=0;" edge="1" parent="1" source="8opHpt3l5C5yYpxKlu1c-1" target="8opHpt3l5C5yYpxKlu1c-4">
          <mxGeometry width="50" height="50" relative="1" as="geometry">
            <mxPoint x="399" y="419" as="sourcePoint" />
            <mxPoint x="449" y="369" as="targetPoint" />
          </mxGeometry>
        </mxCell>
        <mxCell id="8opHpt3l5C5yYpxKlu1c-13" value="" style="shape=flexArrow;endArrow=classic;html=1;strokeColor=#b85450;gradientColor=#ea6b66;fillColor=#f8cecc;" edge="1" parent="1">
          <mxGeometry width="50" height="50" relative="1" as="geometry">
            <mxPoint x="275" y="232" as="sourcePoint" />
            <mxPoint x="369" y="232" as="targetPoint" />
            <Array as="points">
              <mxPoint x="275" y="232" />
            </Array>
          </mxGeometry>
        </mxCell>
        <mxCell id="8opHpt3l5C5yYpxKlu1c-14" value="" style="shape=flexArrow;endArrow=classic;html=1;strokeColor=#b85450;gradientColor=#ea6b66;fillColor=#f8cecc;" edge="1" parent="1">
          <mxGeometry width="50" height="50" relative="1" as="geometry">
            <mxPoint x="282" y="409" as="sourcePoint" />
            <mxPoint x="376" y="409" as="targetPoint" />
            <Array as="points">
              <mxPoint x="282" y="409" />
            </Array>
          </mxGeometry>
        </mxCell>
        <mxCell id="8opHpt3l5C5yYpxKlu1c-17" value="" style="endArrow=classic;html=1;strokeColor=#FF3333;exitX=0.5;exitY=0;exitDx=0;exitDy=0;" edge="1" parent="1" source="8opHpt3l5C5yYpxKlu1c-3" target="8opHpt3l5C5yYpxKlu1c-5">
          <mxGeometry width="50" height="50" relative="1" as="geometry">
            <mxPoint x="399" y="419" as="sourcePoint" />
            <mxPoint x="449" y="369" as="targetPoint" />
          </mxGeometry>
        </mxCell>
      </root>
    </mxGraphModel>
  </diagram>
</mxfile>
